# xmcd
#
# Track frame offsets: 
#        150
#        15504
#        27150
#        39479
#        56002
#        66912
#        82383
#        93614
#        105794
#        116395
#        138263
#        152302
#
# Disc length: 2195 seconds
#
# Revision: 0
# Processed by: cddbd v1.5.2PL0 Copyright (c) Steve Scherf et al.
# Submitted via: ExactAudioCopy v0.95a3
#
DISCID=8e08910c
DTITLE=Various Artist - Open Country
DYEAR=2007
DGENRE=Country
TTITLE0=Juice Newton - Queen of Hearts
TTITLE1=George Jones - She Thinks I Still Care
TTITLE2=Linda Ronstadt - I Can't Help It
TTITLE3=Kenny Rogers - Lucille
TTITLE4=Willie Nelson - Hello Walls
TTITLE5=Crystal Gayle - When I Dream
TTITLE6=Conway Twitty - Hello Darlin'
TTITLE7=Glen Campbell - Galveston
TTITLE8=Jessi Colter - What's Happened to Blue Eyes
TTITLE9=Nitty Gritty Dirt Band - Will the Circle Be Unbroken
TTITLE10=Asleep at the Wheel - Miles and Miles of Texas
TTITLE11=Roy Clark - The Tips of my Fingers
EXTD=
EXTT0=
EXTT1=
EXTT2=
EXTT3=
EXTT4=
EXTT5=
EXTT6=
EXTT7=
EXTT8=
EXTT9=
EXTT10=
EXTT11=
PLAYORDER=
